<?xml version="1.0" encoding="utf-8"?>
<!-- Generator: Adobe Illustrator 16.0.4, SVG Export Plug-In . SVG Version: 6.00 Build 0)  -->
<!DOCTYPE svg PUBLIC "-//W3C//DTD SVG 1.1//EN" "http://www.w3.org/Graphics/SVG/1.1/DTD/svg11.dtd">
<svg version="1.1" id="draw" xmlns="http://www.w3.org/2000/svg" xmlns:xlink="http://www.w3.org/1999/xlink" x="0px" y="0px" viewBox="0 0 400 400" enable-background="new 0 0 400 400" xml:space="preserve">
<polygon fill="#FFFFFF" stroke="#CD7F32" stroke-width="5.7717" stroke-linecap="round" stroke-linejoin="round" stroke-miterlimit="10" points="
	179.991,176.095 182.741,175.584 185.495,174.582 185.165,178.094 "/>
<path fill="#CD7F32" stroke="#FFFFFF" stroke-width="9.2352" stroke-linecap="round" stroke-linejoin="round" stroke-miterlimit="10" d="
	M25.664,278.536C14.856,254.578,8.837,227.993,8.837,200C8.837,94.425,94.425,8.837,200,8.837
	c105.574,0,191.162,85.588,191.162,191.163c0,105.574-85.588,191.162-191.162,191.162c-55.821,0-106.056-23.926-141.001-62.08
	l28.273-28.688l35.103-41.055l31.167-51.072l14.614-5.483l44.893,2.804l11.376,4.335l11.232-1.591l-3.968-14.864l-26.123-17.029
	l-15.044-13.256l-13.096-2.039l-12.034-14.919l1.617,12.514l-4.344,4.62l-12.532-8.25l-3.014,15.523l-69.095,67.847L39.24,269.428
	l-13.583,9.086"/>
</svg>
